<?xml version="1.0" encoding="utf-8"?>
<!-- Generator: Adobe Illustrator 16.0.0, SVG Export Plug-In . SVG Version: 6.00 Build 0)  -->
<!DOCTYPE svg PUBLIC "-//W3C//DTD SVG 1.1//EN" "http://www.w3.org/Graphics/SVG/1.1/DTD/svg11.dtd">
<svg version="1.1" id="Layer_1" xmlns="http://www.w3.org/2000/svg" xmlns:xlink="http://www.w3.org/1999/xlink" x="0px" y="0px"
	 width="151px" height="202.374px" viewBox="0 0 151 202.374" enable-background="new 0 0 151 202.374" xml:space="preserve">
<g>
	<path fill="#F7F7F7" d="M150,10c0-4.971-4.029-9-9-9H9c-4.971,0-9,4.029-9,9v167c0,4.971,4.029,9,9,9h132c4.971,0,9-4.029,9-9V10z"
		/>
	<path fill="none" stroke="#000000" stroke-miterlimit="10" d="M150.5,9.5c0-4.971-4.029-9-9-9H9.5c-4.971,0-9,4.029-9,9v167
		c0,4.971,4.029,9,9,9h132c4.971,0,9-4.029,9-9V9.5z"/>
</g>
<polyline fill="#F7F7F7" stroke="#000000" stroke-miterlimit="10" points="70,185.5 74.879,185.5 84.06,185.5 79.47,193.434 
	74.879,201.375 70.289,193.438 65.699,185.5 70,185.5 "/>
</svg>
